<?xml version="1.0" standalone="no"?>
<!DOCTYPE svg PUBLIC "-//W3C//DTD SVG 20010904//EN"
 "http://www.w3.org/TR/2001/REC-SVG-20010904/DTD/svg10.dtd">
<svg version="1.0" xmlns="http://www.w3.org/2000/svg"
 width="1024.000000pt" height="1024.000000pt" viewBox="0 0 1024.000000 1024.000000"
 preserveAspectRatio="xMidYMid meet">
<metadata>
Created by potrace 1.16, written by Peter Selinger 2001-2019
</metadata>
<g transform="translate(0.000000,1024.000000) scale(0.100000,-0.100000)"
fill="#000000" stroke="none">
<path d="M4855 7668 c-129 -127 -253 -255 -275 -283 -31 -41 -49 -54 -76 -60
-50 -9 -194 -65 -315 -122 -394 -186 -779 -521 -1028 -892 -275 -410 -405
-805 -418 -1272 -6 -226 3 -352 41 -547 25 -132 41 -162 87 -162 49 0 75 41
69 108 -2 27 12 28 160 7 229 -33 597 -154 844 -277 211 -106 434 -263 614
-433 181 -172 291 -323 443 -612 50 -96 95 -171 99 -166 4 4 51 89 105 188
151 278 238 399 415 574 199 195 372 317 645 451 322 159 614 247 936 284 l46
5 6 -45 c5 -52 30 -84 64 -84 61 0 71 21 102 200 71 403 50 781 -60 1125 -154
483 -441 905 -839 1235 -197 163 -509 334 -793 435 -66 24 -83 35 -125 84 -91
105 -490 491 -506 491 -4 0 -112 -104 -241 -232z m576 -394 c117 -134 168
-242 190 -409 31 -234 -33 -443 -185 -603 -59 -62 -210 -171 -222 -159 -2 2
-5 316 -6 699 l-3 695 80 -74 c44 -41 110 -108 146 -149z m-443 -473 c-2 -379
-6 -693 -10 -696 -12 -13 -143 92 -227 181 -134 142 -185 274 -185 479 0 173
38 299 132 434 44 63 267 291 285 291 5 0 7 -284 5 -689z m-603 221 c-42 -120
-45 -379 -7 -519 69 -253 271 -488 522 -610 77 -37 78 -38 84 -82 8 -57 6
-349 -2 -378 -6 -20 -42 11 -312 276 -168 164 -308 297 -312 294 -5 -2 -8
-188 -8 -412 l0 -407 202 -200 c293 -290 468 -470 468 -483 0 -6 -6 -11 -12
-11 -34 0 -128 -56 -171 -102 l-48 -51 -16 24 c-9 13 -51 59 -92 103 -299 310
-789 562 -1269 652 l-23 5 3 583 3 583 60 74 c211 259 492 486 780 629 87 43
160 78 162 77 1 -2 -4 -22 -12 -45z m1540 -7 c315 -152 559 -348 820 -659 l50
-59 -2 -585 c-1 -321 -4 -586 -6 -588 -2 -3 -37 -11 -78 -20 -319 -65 -759
-273 -1014 -479 -110 -89 -247 -224 -273 -271 -9 -17 -15 -14 -61 34 -45 47
-135 102 -168 102 -7 0 -13 6 -13 14 0 8 148 164 330 348 l330 333 -3 416 -2
416 -312 -307 -313 -307 0 227 0 227 63 27 c147 64 297 182 393 310 137 182
200 411 175 643 -6 60 -20 136 -30 171 l-19 63 21 -6 c12 -4 63 -26 112 -50z
m1207 -1360 c90 -274 108 -395 108 -737 l0 -247 -47 -5 c-315 -37 -666 -141
-968 -285 -476 -228 -862 -561 -1070 -924 l-60 -104 -48 90 c-102 195 -271
393 -469 552 -152 123 -370 269 -508 343 -290 154 -758 300 -1020 319 l-91 6
3 311 c4 294 6 318 31 431 36 160 85 310 138 420 l44 90 3 -477 2 -477 55 -10
c30 -6 81 -16 113 -22 101 -19 328 -87 449 -135 356 -139 674 -371 871 -634
24 -33 45 -75 52 -103 14 -62 48 -130 98 -193 36 -46 64 -64 172 -114 8 -4 29
-39 45 -77 17 -39 38 -81 47 -94 17 -24 18 -24 33 -4 8 10 29 54 47 97 31 76
33 78 80 94 61 20 145 96 182 164 16 29 37 83 46 121 14 55 29 82 78 142 242
296 684 571 1102 686 117 33 300 71 336 71 l24 0 1 498 1 497 40 -85 c22 -47
58 -139 80 -205z m-2349 -353 l207 -207 0 -66 c0 -36 -3 -87 -6 -112 l-7 -46
-208 210 -209 210 0 110 c0 60 3 109 8 109 4 -1 100 -94 215 -208z m850 -7
c-3 -11 -99 -115 -214 -231 l-209 -210 0 120 0 121 208 208 207 207 7 -97 c4
-54 4 -107 1 -118z m-445 -1045 c91 -67 81 -206 -19 -258 -106 -56 -222 13
-223 132 -1 61 18 95 75 134 44 31 119 27 167 -8z"/>
<path d="M4070 6153 l0 -68 70 3 70 4 0 64 0 64 -70 0 -70 0 0 -67z"/>
<path d="M3761 5596 l-95 -95 93 -92 92 -92 41 39 c22 22 61 64 88 94 l47 55
-86 93 -86 92 -94 -94z"/>
<path d="M5989 6190 c-1 -16 -2 -46 -3 -66 l-1 -36 73 -4 72 -5 0 70 0 71 -70
0 -70 0 -1 -30z"/>
<path d="M6251 5596 c-46 -46 -82 -89 -80 -95 2 -6 42 -49 88 -96 l84 -86 89
91 89 90 -83 90 c-45 50 -87 90 -93 90 -6 0 -48 -38 -94 -84z"/>
<path d="M2790 4173 c-39 -27 -49 -45 -50 -86 0 -63 29 -83 136 -91 530 -41
967 -191 1384 -477 89 -61 324 -254 374 -308 38 -40 86 -42 121 -6 14 13 25
30 25 38 0 47 -205 262 -394 412 -351 278 -813 462 -1312 520 -173 20 -253 20
-284 -2z"/>
<path d="M7167 4179 c-307 -32 -677 -142 -987 -292 -126 -61 -301 -171 -395
-249 -78 -64 -330 -311 -351 -343 -20 -31 -11 -90 16 -105 41 -22 67 -11 155
68 123 108 273 224 391 301 121 80 391 215 528 266 218 80 487 138 766 165
120 11 151 25 166 72 8 28 -14 85 -43 108 -28 22 -98 25 -246 9z"/>
<path d="M7315 3785 c-160 -14 -364 -40 -430 -56 -496 -119 -704 -194 -984
-352 -311 -176 -472 -337 -710 -709 l-94 -146 -51 81 c-277 438 -427 591 -775
785 -238 133 -480 226 -780 301 -242 61 -427 86 -706 97 l-160 7 -32 -27 c-39
-33 -49 -72 -29 -120 15 -37 62 -66 105 -66 16 0 21 -9 26 -43 4 -24 5 -56 3
-72 -3 -27 -7 -30 -53 -38 -27 -5 -60 -18 -72 -29 -48 -45 -36 -123 24 -164
26 -18 53 -19 434 -20 l406 -1 110 -89 c269 -217 515 -353 828 -456 153 -51
276 -81 377 -93 47 -6 60 -12 74 -34 10 -14 67 -88 127 -163 129 -163 136
-166 208 -90 48 49 132 154 189 235 26 37 39 47 61 47 95 0 419 87 575 153
283 121 469 234 690 418 l81 67 409 5 c454 4 456 5 488 71 23 48 20 71 -11
106 -22 24 -39 32 -80 37 l-53 6 0 72 0 72 41 7 c113 18 136 159 33 202 -39
16 -66 16 -269 -1z m-4115 -241 c112 -19 405 -92 505 -127 199 -69 440 -186
584 -282 111 -75 267 -208 329 -283 l43 -51 -53 15 c-197 57 -396 135 -552
219 -125 68 -332 208 -446 302 -115 95 -106 93 -423 93 l-277 0 0 68 c0 38 2
71 5 73 7 7 178 -9 285 -27z m4080 -44 l0 -70 -276 0 c-185 0 -282 -4 -297
-11 -12 -6 -89 -62 -172 -124 -204 -153 -297 -214 -434 -284 -171 -87 -296
-135 -484 -186 l-88 -24 53 61 c204 236 627 483 1013 592 184 52 515 113 623
115 l62 1 0 -70z"/>
</g>
</svg>
